<?xml version="1.0" standalone="no"?>
<!DOCTYPE svg PUBLIC "-//W3C//DTD SVG 20010904//EN"
 "http://www.w3.org/TR/2001/REC-SVG-20010904/DTD/svg10.dtd">
<svg version="1.0" xmlns="http://www.w3.org/2000/svg"
 width="1080.000000pt" height="1080.000000pt" viewBox="0 0 1080.000000 1080.000000"
 preserveAspectRatio="xMidYMid meet">

<g transform="translate(0.000000,1080.000000) scale(0.100000,-0.100000)"
fill="#A020F0" stroke="none">
<path d="M5090 10673 c-366 -17 -906 -119 -1281 -243 -305 -100 -707 -280
-984 -440 -708 -410 -1365 -1052 -1779 -1737 -443 -734 -681 -1466 -747 -2297
-14 -177 -5 -768 13 -925 l13 -104 54 134 c107 269 279 596 434 824 641 947
1572 1503 2692 1605 105 10 513 14 504 6 -2 -2 -58 -14 -124 -26 -497 -88
-975 -287 -1380 -573 -165 -117 -302 -233 -460 -392 -378 -377 -635 -790 -814
-1308 -200 -581 -239 -1198 -114 -1817 32 -162 110 -418 174 -579 65 -160 189
-405 277 -544 71 -114 183 -270 189 -264 1 2 -8 31 -22 65 -67 164 -146 486
-175 707 -18 141 -27 396 -19 565 28 616 249 1225 629 1734 89 120 295 356
310 356 4 0 0 -28 -11 -62 -177 -575 -210 -1222 -92 -1823 l28 -140 7 135 c33
595 200 1134 506 1630 220 358 556 701 868 886 318 190 684 291 1019 282 l110
-3 -119 -63 c-585 -312 -1025 -763 -1311 -1347 -208 -422 -305 -844 -305
-1320 0 -405 73 -775 226 -1155 414 -1021 1196 -1648 2244 -1797 177 -25 662
-25 840 0 736 103 1355 367 1995 848 192 144 336 270 521 454 728 725 1207
1619 1409 2625 74 372 100 676 92 1090 -8 434 -49 753 -147 1149 -221 889
-657 1666 -1310 2335 -717 734 -1614 1223 -2630 1435 -395 82 -869 115 -1330
94z m785 -603 c232 -11 397 -30 580 -66 679 -133 1275 -409 1805 -833 816
-655 1357 -1618 1490 -2654 188 -1470 -409 -2897 -1590 -3797 -373 -284 -816
-512 -1190 -614 -209 -56 -286 -68 -490 -73 -223 -6 -359 11 -530 67 -453 148
-779 527 -892 1037 -30 135 -33 464 -4 593 31 142 64 246 110 343 133 286 344
502 642 659 107 57 94 66 114 -82 14 -108 99 -629 107 -654 4 -15 11 -17 47
-12 22 4 194 22 381 41 370 37 479 59 612 120 145 67 285 191 421 374 78 104
98 155 96 246 -4 133 13 112 -375 451 -193 169 -348 308 -345 311 10 10 151
-30 261 -74 130 -52 304 -138 451 -224 58 -34 107 -59 109 -57 10 10 -28 126
-57 178 -147 263 -571 591 -1285 996 l-123 69 0 153 0 154 -45 58 c-58 76
-127 136 -250 219 -244 164 -633 325 -984 407 -79 18 -146 36 -150 40 -11 12
403 -5 484 -20 44 -9 83 -16 88 -16 4 0 7 88 7 195 l0 194 -144 70 c-403 196
-769 302 -1286 372 -151 21 -680 18 -860 -5 -281 -35 -596 -108 -826 -191 -53
-19 -101 -35 -106 -35 -13 0 24 63 130 225 405 619 994 1132 1656 1445 514
242 1041 370 1631 393 39 2 79 4 90 5 11 1 110 -3 220 -8z m-399 -3485 c170
-42 317 -78 328 -81 16 -5 12 -13 -31 -58 -26 -28 -61 -65 -75 -81 l-27 -30
114 -150 c63 -82 113 -150 111 -152 -2 -2 -161 107 -352 242 -340 239 -349
247 -360 288 -22 87 -24 97 -21 97 3 0 143 -34 313 -75z"/>
<path d="M7228 3880 c-34 -21 -278 -82 -398 -100 -69 -11 -197 -24 -285 -30
-180 -11 -384 -28 -464 -38 l-53 -7 193 -160 c236 -195 452 -380 535 -458 l62
-57 67 72 c126 137 237 328 295 513 17 55 42 134 56 175 32 102 32 113 -8 90z"/>
</g>
</svg>
