<?xml version="1.0" standalone="no"?>
<!DOCTYPE svg PUBLIC "-//W3C//DTD SVG 20010904//EN"
 "http://www.w3.org/TR/2001/REC-SVG-20010904/DTD/svg10.dtd">
<svg version="1.0" xmlns="http://www.w3.org/2000/svg"
 width="390.000000pt" height="223.000000pt" viewBox="0 0 390.000000 223.000000"
 preserveAspectRatio="xMidYMid meet">

<g transform="translate(0.000000,223.000000) scale(0.100000,-0.100000)"
fill="#A020F0" stroke="none">
<path d="M1015 2060 c-340 -53 -630 -298 -733 -620 -57 -179 -57 -381 0 -560
94 -293 333 -519 637 -602 110 -31 342 -30 456 0 334 90 589 359 661 696 19
87 21 269 4 354 l-13 62 -239 0 c-270 0 -247 9 -211 -80 13 -34 18 -73 18
-156 0 -108 -1 -112 -38 -188 -70 -141 -193 -233 -343 -256 -240 -37 -476 134
-517 374 -33 196 69 394 251 483 l76 38 453 3 c249 1 453 7 453 11 0 5 -21 37
-47 72 -127 174 -314 300 -516 350 -95 23 -265 32 -352 19z"/>
<path d="M2625 2060 c-128 -20 -276 -79 -385 -153 -111 -76 -279 -269 -250
-287 8 -5 202 -9 432 -10 469 -1 483 -3 591 -74 127 -84 197 -218 197 -377 0
-184 -104 -345 -272 -419 -216 -95 -488 7 -588 223 -65 138 -64 246 5 410 7
16 0 18 -101 15 -82 -2 -108 -6 -106 -16 18 -91 23 -223 13 -319 -14 -121 -63
-284 -112 -370 l-30 -53 20 -29 c42 -59 190 -187 265 -230 153 -87 331 -129
505 -118 405 26 737 302 833 694 30 123 30 303 0 426 -80 325 -332 581 -657
667 -92 24 -269 34 -360 20z"/>
</g>
</svg>
